<?xml version="1.0" encoding="UTF-8" standalone="no"?>
<svg
   xmlns:osb="http://www.openswatchbook.org/uri/2009/osb"
   xmlns:dc="http://purl.org/dc/elements/1.1/"
   xmlns:cc="http://creativecommons.org/ns#"
   xmlns:rdf="http://www.w3.org/1999/02/22-rdf-syntax-ns#"
   xmlns:svg="http://www.w3.org/2000/svg"
   xmlns="http://www.w3.org/2000/svg"
   xmlns:xlink="http://www.w3.org/1999/xlink"
   xmlns:sodipodi="http://sodipodi.sourceforge.net/DTD/sodipodi-0.dtd"
   xmlns:inkscape="http://www.inkscape.org/namespaces/inkscape"
   sodipodi:docname="preferences-gdt.svg"
   inkscape:version="1.0 (4035a4fb49, 2020-05-01)"
   version="1.1"
   id="svg3085"
   height="32px"
   width="32px">
  <defs
     id="defs3087">
    <linearGradient
       osb:paint="solid"
       id="linearGradient5701">
      <stop
         id="stop5703"
         offset="0"
         style="stop-color:#000000;stop-opacity:1;" />
    </linearGradient>
    <inkscape:path-effect
       fuse_tolerance="0"
       vertical_pattern="false"
       prop_units="false"
       tang_offset="0"
       normal_offset="0"
       spacing="0"
       scale_y_rel="false"
       prop_scale="1"
       copytype="single_stretched"
       pattern="M 0,0 0,10 10,5 z"
       is_visible="true"
       id="path-effect3066"
       effect="skeletal" />
    <linearGradient
       id="linearGradient7597"
       inkscape:collect="always">
      <stop
         id="stop7599"
         offset="0"
         style="stop-color:#000003;stop-opacity:1;" />
      <stop
         id="stop7601"
         offset="1"
         style="stop-color:#000003;stop-opacity:0;" />
    </linearGradient>
    <marker
       style="overflow:visible"
       id="Arrow1Lstart"
       refX="0.0"
       refY="0.0"
       orient="auto"
       inkscape:stockid="Arrow1Lstart">
      <path
         transform="scale(0.8) translate(12.5,0)"
         style="fill-rule:evenodd;stroke:#000000;stroke-width:1.0pt"
         d="M 0.0,0.0 L 5.0,-5.0 L -12.5,0.0 L 5.0,5.0 L 0.0,0.0 z "
         id="path3995" />
    </marker>
    <marker
       style="overflow:visible;"
       id="Arrow1Send"
       refX="0.0"
       refY="0.0"
       orient="auto"
       inkscape:stockid="Arrow1Send">
      <path
         transform="scale(0.2) rotate(180) translate(6,0)"
         style="fill-rule:evenodd;stroke:#000000;stroke-width:1.0pt;"
         d="M 0.0,0.0 L 5.0,-5.0 L -12.5,0.0 L 5.0,5.0 L 0.0,0.0 z "
         id="path4010" />
    </marker>
    <marker
       style="overflow:visible"
       id="Arrow1Sstart"
       refX="0.0"
       refY="0.0"
       orient="auto"
       inkscape:stockid="Arrow1Sstart">
      <path
         transform="scale(0.2) translate(6,0)"
         style="fill-rule:evenodd;stroke:#000000;stroke-width:1.0pt"
         d="M 0.0,0.0 L 5.0,-5.0 L -12.5,0.0 L 5.0,5.0 L 0.0,0.0 z "
         id="path4007" />
    </marker>
    <marker
       style="overflow:visible"
       id="Arrow2Sstart"
       refX="0.0"
       refY="0.0"
       orient="auto"
       inkscape:stockid="Arrow2Sstart">
      <path
         transform="scale(0.3) translate(-2.3,0)"
         d="M 8.7185878,4.0337352 L -2.2072895,0.016013256 L 8.7185884,-4.0017078 C 6.9730900,-1.6296469 6.9831476,1.6157441 8.7185878,4.0337352 z "
         style="fill-rule:evenodd;stroke-width:0.62500000;stroke-linejoin:round"
         id="path4025" />
    </marker>
    <marker
       style="overflow:visible"
       id="TriangleOutL"
       refX="0.0"
       refY="0.0"
       orient="auto"
       inkscape:stockid="TriangleOutL">
      <path
         transform="scale(0.8)"
         style="fill-rule:evenodd;stroke:#000000;stroke-width:1.0pt"
         d="M 5.77,0.0 L -2.88,5.0 L -2.88,-5.0 L 5.77,0.0 z "
         id="path4137" />
    </marker>
    <marker
       style="overflow:visible"
       id="DiamondLend"
       refX="0.0"
       refY="0.0"
       orient="auto"
       inkscape:stockid="DiamondLend">
      <path
         transform="scale(0.8) translate(-7,0)"
         style="fill-rule:evenodd;stroke:#000000;stroke-width:1.0pt"
         d="M 0,-7.0710768 L -7.0710894,0 L 0,7.0710589 L 7.0710462,0 L 0,-7.0710768 z "
         id="path4092" />
    </marker>
    <marker
       style="overflow:visible"
       id="DiamondLstart"
       refX="0.0"
       refY="0.0"
       orient="auto"
       inkscape:stockid="DiamondLstart">
      <path
         transform="scale(0.8) translate(7,0)"
         style="fill-rule:evenodd;stroke:#000000;stroke-width:1.0pt"
         d="M 0,-7.0710768 L -7.0710894,0 L 0,7.0710589 L 7.0710462,0 L 0,-7.0710768 z "
         id="path4083" />
    </marker>
    <marker
       style="overflow:visible;"
       id="Arrow1Lend"
       refX="0.0"
       refY="0.0"
       orient="auto"
       inkscape:stockid="Arrow1Lend">
      <path
         transform="scale(0.8) rotate(180) translate(12.5,0)"
         style="fill-rule:evenodd;stroke:#000000;stroke-width:1.0pt;"
         d="M 0.0,0.0 L 5.0,-5.0 L -12.5,0.0 L 5.0,5.0 L 0.0,0.0 z "
         id="path3998" />
    </marker>
    <linearGradient
       id="linearGradient3893">
      <stop
         id="stop3895"
         offset="0"
         style="stop-color:#ffffff;stop-opacity:1;" />
      <stop
         id="stop3897"
         offset="1"
         style="stop-color:#ffffff;stop-opacity:0;" />
    </linearGradient>
    <linearGradient
       gradientUnits="userSpaceOnUse"
       y2="22.299378"
       x2="34.136209"
       y1="22.299378"
       x1="15.71482"
       id="linearGradient7603"
       xlink:href="#linearGradient7597"
       inkscape:collect="always" />
  </defs>
  <sodipodi:namedview
     inkscape:document-rotation="0"
     inkscape:window-maximized="1"
     inkscape:window-y="-8"
     inkscape:window-x="-8"
     inkscape:window-height="837"
     inkscape:window-width="1600"
     inkscape:document-units="px"
     inkscape:grid-bbox="true"
     showgrid="true"
     inkscape:current-layer="g4151"
     inkscape:cy="14.22495"
     inkscape:cx="12.694834"
     inkscape:zoom="14.045239"
     inkscape:pageshadow="2"
     inkscape:pageopacity="0.0"
     borderopacity="1.0"
     bordercolor="#666666"
     pagecolor="#ffffff"
     id="base" />
  <metadata
     id="metadata3090">
    <rdf:RDF>
      <cc:Work
         rdf:about="">
        <dc:format>image/svg+xml</dc:format>
        <dc:type
           rdf:resource="http://purl.org/dc/dcmitype/StillImage" />
        <dc:title />
      </cc:Work>
    </rdf:RDF>
  </metadata>
  <g
     inkscape:groupmode="layer"
     inkscape:label="Layer 1"
     id="layer1">
    <rect
       rx="5.3601341"
       ry="5.3601341"
       y="1.49261"
       x="1.49261"
       height="29.01478"
       width="29.01478"
       id="rect3358"
       style="fill:none;fill-rule:evenodd;stroke:#ff6600;stroke-width:0.98522px;stroke-linecap:butt;stroke-linejoin:miter;stroke-opacity:1" />
    <path
       d="m 8.1707618,6.528751 q -0.2475,-0.22 -0.61875,-0.33 -0.37125,-0.12375 -0.72875,-0.12375 -0.39875,0 -0.72875,0.15125 -0.33,0.1375 -0.5775,0.39875 -0.23375,0.2475 -0.37125,0.605 -0.1375,0.3575 -0.1375,0.77 0,0.4125 0.15125,0.77 0.15125,0.3575 0.4125,0.61875 0.26125,0.2475 0.605,0.39875 0.3575,0.1375 0.75625,0.1375 0.4675,0 0.8525,-0.1925 0.385,-0.20625 0.66,-0.55 h -0.825 v -1.925 h 3.5337502 v 3.0525 q -0.31625,0.56375 -0.75625,1.03125 -0.4400002,0.45375 -0.9900002,0.78375 -0.53625,0.33 -1.16875,0.50875 -0.6325,0.17875 -1.30625,0.17875 -0.99,0 -1.87,-0.37125 -0.88,-0.37125 -1.54,-1.0175 -0.64625,-0.64625 -1.03125,-1.52625 -0.37125,-0.88 -0.37125,-1.8975 0,-0.99 0.3575,-1.87 0.3575,-0.88 0.97625,-1.52625 0.6325,-0.66 1.485,-1.03125 0.86625,-0.385 1.85625,-0.385 0.77,0 1.33375,0.15125 0.56375,0.15125 0.94875,0.34375 0.45375,0.22 0.75625,0.48125 z m 0.1375,-1.77375 q -0.17875,-0.0825 -0.39875,-0.1375 -0.1925,-0.055 -0.45375,-0.09625 -0.26125,-0.04125 -0.5775,-0.04125 -0.72875,0 -1.36125,0.26125 -0.6325,0.26125 -1.1,0.72875 -0.4675,0.45375 -0.7425,1.1 -0.26125,0.64625 -0.26125,1.43 0,0.78375 0.275,1.43 0.275,0.64625 0.75625,1.11375 0.48125,0.45375 1.11375,0.715 0.64625,0.26125 1.375,0.26125 0.94875,0 1.71875,-0.44 0.77,-0.45375 1.25125,-1.19625 v -1.80125 h -1.4575 v 0.33 h 1.1 v 1.375 q -0.42625,0.6325 -1.11375,1.00375 -0.67375,0.37125 -1.49875,0.37125 -0.66,0 -1.2375,-0.22 -0.56375,-0.23375 -1.00375,-0.64625 -0.42625,-0.42625 -0.67375,-1.00375 -0.2475,-0.59125 -0.2475,-1.2925 0,-0.70125 0.23375,-1.27875 0.2475,-0.59125 0.66,-1.00375 0.42625,-0.42625 0.99,-0.64625 0.56375,-0.23375 1.22375,-0.23375 0.2475,0 0.4675,0.04125 0.22,0.04125 0.385,0.0825 0.1925,0.055 0.3575,0.11 z"
       style="font-style:normal;font-weight:normal;font-size:13.75px;line-height:125%;font-family:sans-serif;letter-spacing:0px;word-spacing:0px;fill:#ff6600;fill-opacity:1;stroke:none;stroke-width:1px;stroke-linecap:butt;stroke-linejoin:miter;stroke-opacity:1"
       id="path4239"
       inkscape:connector-curvature="0" />
    <path
       d="m 11.914414,20.578751 v -9.17125 h 2.54375 q 1.2925,0 2.29625,0.28875 1.0175,0.28875 1.705,0.86625 0.70125,0.5775 1.05875,1.44375 0.37125,0.8525 0.37125,1.98 0,1.1275 -0.37125,1.99375 -0.3575,0.8525 -1.05875,1.43 -0.6875,0.5775 -1.705,0.88 -1.00375,0.28875 -2.29625,0.28875 z m 1.7325,-1.43 v -6.31125 h 0.81125 q 1.74625,0 2.70875,0.7975 0.97625,0.78375 0.97625,2.35125 0,1.5675 -0.97625,2.365 -0.9625,0.7975 -2.70875,0.7975 z m -0.3575,0.33 h 1.16875 q 2.0075,0 3.025,-0.9075 1.03125,-0.92125 1.03125,-2.585 0,-1.66375 -1.03125,-2.57125 -1.0175,-0.9075 -3.025,-0.9075 h -1.16875 z m 1.55375,-1.5125 q 1.03125,0 1.595,-0.48125 0.56375,-0.495 0.56375,-1.49875 0,-1.00375 -0.56375,-1.485 -0.56375,-0.48125 -1.595,-0.48125 z"
       style="font-style:normal;font-weight:normal;font-size:13.75px;line-height:125%;font-family:sans-serif;letter-spacing:0px;word-spacing:0px;fill:#ff6600;fill-opacity:1;stroke:none;stroke-width:1px;stroke-linecap:butt;stroke-linejoin:miter;stroke-opacity:1"
       id="path4241"
       inkscape:connector-curvature="0" />
    <path
       d="m 20,19.99 q 0,-0.305 0.135,-0.51 0.14,-0.21 0.365,-0.355 -0.115,-0.125 -0.19,-0.29 -0.075,-0.165 -0.075,-0.36 0,-0.21 0.08,-0.39 0.08,-0.18 0.22,-0.31 0.14,-0.13 0.33,-0.2 0.19,-0.075 0.41,-0.075 0.245,0 0.445,0.075 0.2,0.075 0.34,0.21 0.145,0.13 0.22,0.315 0.075,0.18 0.075,0.395 0,0.255 -0.135,0.445 -0.135,0.19 -0.325,0.33 l 0.455,0.38 q 0.06,-0.06 0.115,-0.125 0.06,-0.065 0.145,-0.175 l 0.67,0.57 q -0.11,0.15 -0.235,0.285 -0.125,0.135 -0.27,0.255 -0.125,0.1 -0.28,0.2 -0.15,0.095 -0.335,0.17 -0.18,0.075 -0.39,0.12 Q 21.56,21 21.325,21 20.98,21 20.73,20.92 20.48,20.845 20.315,20.71 20.155,20.575 20.075,20.39 20,20.205 20,19.99 Z m 1.35,0.165 q 0.075,0 0.15,-0.01 0.08,-0.015 0.15,-0.04 l -0.485,-0.41 q -0.125,0.095 -0.125,0.225 0,0.12 0.095,0.18 0.095,0.055 0.215,0.055 z M 21.105,18.46 q 0,0.07 0.03,0.135 0.035,0.06 0.13,0.145 0.115,-0.07 0.165,-0.13 0.05,-0.065 0.05,-0.15 0,-0.185 -0.185,-0.185 -0.085,0 -0.14,0.055 -0.05,0.05 -0.05,0.13 z m 1,1.405 -0.765,-0.64 q 0.275,-0.15 0.44,-0.32 0.165,-0.175 0.165,-0.425 0,-0.13 -0.055,-0.24 -0.05,-0.11 -0.14,-0.185 -0.09,-0.08 -0.215,-0.12 -0.12,-0.045 -0.26,-0.045 -0.12,0 -0.235,0.045 -0.115,0.04 -0.205,0.12 -0.09,0.075 -0.145,0.185 -0.05,0.11 -0.05,0.245 0,0.185 0.1,0.33 0.1,0.14 0.27,0.28 l 0.125,0.105 -0.12,0.06 q -0.11,0.055 -0.21,0.125 -0.095,0.065 -0.165,0.15 -0.07,0.08 -0.115,0.185 -0.04,0.1 -0.04,0.225 0,0.165 0.07,0.29 0.07,0.125 0.185,0.205 0.115,0.08 0.265,0.12 0.15,0.04 0.31,0.04 0.345,0 0.615,-0.11 0.27,-0.11 0.46,-0.245 0.22,-0.155 0.395,-0.36 L 22.69,19.82 q -0.08,0.095 -0.17,0.18 -0.09,0.085 -0.19,0.155 -0.175,0.125 -0.43,0.23 -0.255,0.1 -0.585,0.1 -0.12,0 -0.245,-0.025 -0.125,-0.03 -0.23,-0.09 -0.1,-0.065 -0.17,-0.17 -0.065,-0.105 -0.065,-0.255 0,-0.215 0.125,-0.345 0.125,-0.135 0.35,-0.245 l 0.15,-0.075 0.78,0.65 z m -0.29,-1.385 q 0,0.24 -0.15,0.385 -0.15,0.14 -0.42,0.28 l -0.155,-0.13 q -0.2,-0.165 -0.26,-0.285 -0.06,-0.125 -0.06,-0.24 0,-0.21 0.14,-0.345 0.14,-0.135 0.365,-0.135 0.1,0 0.195,0.03 0.1,0.03 0.175,0.09 0.075,0.06 0.12,0.15 0.05,0.085 0.05,0.2 z"
       style="font-style:normal;font-weight:normal;font-size:5px;line-height:125%;font-family:sans-serif;letter-spacing:0px;word-spacing:0px;fill:#ff6600;fill-opacity:1;stroke:none;stroke-width:1px;stroke-linecap:butt;stroke-linejoin:miter;stroke-opacity:1"
       id="path4243"
       inkscape:connector-curvature="0" />
    <path
       d="m 25.162988,21.813751 h -1.69125 v -2.40625 h 6.4075 v 2.40625 h -1.69125 v 6.765 h -3.025 z m 1.69125,5.665 v -6.64125 h 1.96625 v -0.33 h -4.29 v 0.33 h 1.96625 v 6.64125 z"
       style="font-style:normal;font-weight:normal;font-size:13.75px;line-height:125%;font-family:sans-serif;letter-spacing:0px;word-spacing:0px;fill:#ff6600;fill-opacity:1;stroke:none;stroke-width:1px;stroke-linecap:butt;stroke-linejoin:miter;stroke-opacity:1"
       id="path4245"
       inkscape:connector-curvature="0" />
    <g
       id="g4151"
       transform="matrix(0.70842551,0,0,0.71036215,0.21131295,-14.42594)" />
  </g>
</svg>
